<?xml version="1.0" encoding="UTF-8"?>
<svg width="98px" height="40px" viewBox="0 0 98 40" version="1.1" xmlns="http://www.w3.org/2000/svg" xmlns:xlink="http://www.w3.org/1999/xlink">
    <title>797840FD-49A6-4277-B2C0-396C14506B93</title>
    <defs>
        <radialGradient cx="49.8906024%" cy="50.0597734%" fx="49.8906024%" fy="50.0597734%" r="54.631728%" gradientTransform="translate(0.498906,0.500598),scale(0.850602,1.000000),translate(-0.498906,-0.500598)" id="radialGradient-1">
            <stop stop-color="#7BC144" offset="1.994931e-05%"></stop>
            <stop stop-color="#53A646" offset="100%"></stop>
        </radialGradient>
    </defs>
    <g id="Page-1" stroke="none" stroke-width="1" fill="none" fill-rule="evenodd">
        <g id="budo&amp;fitness---footer-v2" transform="translate(-1059.000000, -256.000000)" fill-rule="nonzero">
            <g id="Group-9" transform="translate(1059.000000, 80.000000)">
                <g id="comodo-secure" transform="translate(0.000000, 176.000000)">
                    <g id="Group">
                        <path d="M94.1318267,37.1224105 L15.7162586,37.1224105 C8.94915254,37.1224105 3.36933392,31.3496547 3.36933392,24.2787194 L3.36933392,18.782172 C3.31450094,11.6836158 8.86629002,5.88323917 15.7162586,5.88323917 L94.1318267,5.88323917 C96.175769,5.88323917 97.7777778,7.59573132 97.7777778,9.69491525 L97.7777778,33.3107345 C97.7777778,35.4099184 96.175769,37.1224105 94.1318267,37.1224105 Z" id="Path" fill="#7BC144"></path>
                        <g transform="translate(35.630885, 8.838669)" fill="#FFFFFF">
                            <path d="M13.6170747,0.193345888 L13.6170747,0.193345888 L13.6170747,0.193345888 L13.2303829,0.193345888 C10.5235405,0.248587571 9.08725675,1.35342122 8.75580665,3.50784683 L8.59008161,4.88888889 C8.47959824,5.88323917 8.64532329,6.60138104 9.14249843,7.09855618 C9.69491525,7.76145637 10.7445072,8.20338983 12.2912743,8.25863151 L12.6779661,8.25863151 C15.3295669,8.25863151 16.7658506,7.15379787 17.0973007,5.10985562 L17.0973007,5.10985562 L17.0973007,4.94413057 L17.2630257,3.56308851 C17.3735091,2.56873823 17.2077841,1.79535468 16.7106089,1.24293785 C16.1581921,0.69052103 15.1638418,0.248587571 13.6170747,0.193345888 M14.8876334,4.88888889 C14.8323917,5.44130571 14.6666667,5.88323917 14.3904583,6.21468927 C14.0590082,6.65662272 13.561833,6.93283114 12.7884495,6.93283114 L12.4017577,6.93283114 L12.4017577,6.93283114 C11.6836158,6.93283114 11.1864407,6.71186441 10.9654739,6.26993095 C10.7997489,5.93848085 10.7997489,5.55178908 10.8549906,4.94413057 L11.0207156,3.67357188 C11.131199,3.01067169 11.3521657,2.45825487 11.6836158,2.12680477 C12.0150659,1.79535468 12.5122411,1.62962963 13.1198996,1.62962963 L13.1198996,1.62962963 L13.5065913,1.62962963 L13.5065913,1.62962963 C13.9485248,1.62962963 14.4456999,1.68487131 14.77715,2.12680477 C15.0533584,2.45825487 15.1086001,2.95543001 14.9981168,3.61833019 L14.8876334,4.88888889 Z" id="Shape"></path>
                            <path d="M35.5480226,0.193345888 L35.5480226,0.193345888 L35.5480226,0.193345888 L35.1613308,0.193345888 C32.4544884,0.248587571 31.0182046,1.35342122 30.6867546,3.50784683 L30.5210295,4.88888889 C30.4105461,5.88323917 30.5762712,6.60138104 31.0734463,7.09855618 C31.6811048,7.76145637 32.6754551,8.20338983 34.2222222,8.25863151 L34.608914,8.25863151 C37.2605148,8.25863151 38.6967985,7.15379787 39.0282486,5.10985562 L39.0282486,5.10985562 L39.0282486,4.94413057 L39.1939736,3.56308851 C39.304457,2.56873823 39.138732,1.79535468 38.6415568,1.24293785 C38.0615191,0.69052103 37.0119272,0.248587571 35.5480226,0.193345888 M36.7633396,4.88888889 C36.7080979,5.44130571 36.5423729,5.88323917 36.2661645,6.21468927 C35.9347144,6.65662272 35.4375392,6.93283114 34.7193974,6.93283114 L34.3327056,6.93283114 L34.3327056,6.93283114 C33.6145637,6.93283114 33.1173886,6.71186441 32.8964218,6.26993095 C32.7306968,5.93848085 32.7306968,5.55178908 32.7859385,4.94413057 L32.9516635,3.67357188 C33.0621469,3.01067169 33.2831136,2.45825487 33.6145637,2.12680477 C33.9460138,1.79535468 34.443189,1.62962963 35.0508475,1.62962963 L35.0508475,1.62962963 L35.4375392,1.62962963 L35.4375392,1.62962963 C35.8794727,1.62962963 36.3766478,1.68487131 36.7080979,2.12680477 C36.9843063,2.45825487 37.039548,2.95543001 36.9290647,3.61833019 L36.7633396,4.88888889 Z" id="Shape"></path>
                            <path d="M58.9428751,1.29817954 C58.3352166,0.635279347 57.3408663,0.193345888 55.8493409,0.193345888 L55.8493409,0.193345888 L55.8493409,0.193345888 L55.4626491,0.193345888 C52.7558067,0.248587571 51.3195229,1.35342122 50.9880728,3.50784683 L50.8223478,4.88888889 C50.7118644,5.88323917 50.8775895,6.60138104 51.3747646,7.09855618 C51.9271814,7.76145637 52.9767734,8.20338983 54.5235405,8.25863151 L54.9102323,8.25863151 C57.561833,8.25863151 58.9981168,7.15379787 59.3295669,5.10985562 L59.3295669,5.10985562 L59.3295669,4.94413057 L59.4952919,3.56308851 C59.6057753,2.62397991 59.4400502,1.85059636 58.9428751,1.29817954 M57.0646579,4.88888889 C57.0094162,5.44130571 56.8436911,5.88323917 56.5674827,6.21468927 C56.2360326,6.65662272 55.7388575,6.93283114 55.0207156,6.93283114 L54.6340239,6.93283114 L54.6340239,6.93283114 C53.915882,6.93283114 53.4187068,6.71186441 53.1977401,6.26993095 C53.0320151,5.93848085 53.0320151,5.55178908 53.0872567,4.94413057 L53.2529818,3.67357188 C53.3634652,3.01067169 53.5844319,2.45825487 53.915882,2.12680477 C54.2473321,1.79535468 54.7445072,1.62962963 55.3521657,1.62962963 L55.3521657,1.62962963 L55.7388575,1.62962963 C56.1255493,1.62962963 56.6779661,1.68487131 57.0094162,2.12680477 C57.2856246,2.45825487 57.3408663,2.95543001 57.2303829,3.61833019 L57.0646579,4.88888889 Z" id="Shape"></path>
                            <path d="M42.3703704,2.62397991 C42.4256121,2.62397991 42.5360954,2.62397991 42.5913371,2.62397991 C42.8675455,2.67922159 43.0332706,2.78970496 43.1437539,2.90018832 C43.309479,3.12115505 43.4199623,3.39736347 43.3647207,3.72881356 L43.0885122,6.1042059 L43.0885122,6.1042059 L43.0332706,6.71186441 L43.0332706,6.76710609 L43.0332706,6.76710609 L43.0332706,6.76710609 L44.3590709,6.76710609 C44.4143126,6.76710609 44.5800377,6.76710609 44.690521,6.76710609 C45.2981795,6.71186441 46.2372881,6.49089768 46.5134965,5.71751412 L46.5134965,5.66227244 C46.5687382,5.44130571 46.6239799,5.22033898 46.6792216,4.99937225 L46.789705,4.17074702 L46.789705,4.17074702 L46.789705,4.17074702 L46.8449466,3.78405524 C46.9001883,3.45260515 46.9001883,3.17639674 46.8449466,2.90018832 C46.7344633,2.12680477 45.8505964,1.90583804 45.2981795,1.85059636 C45.1876962,1.85059636 45.0772128,1.85059636 44.9667294,1.85059636 L43.6409291,1.85059636 L43.6409291,1.85059636 L42.7018205,1.85059636 L42.5913371,1.85059636 L42.5913371,1.85059636 C42.259887,1.85059636 42.094162,1.79535468 41.9836786,1.68487131 C41.7074702,1.46390458 41.5417451,1.13245449 41.5417451,0.69052103 L41.5417451,0.4695543 L41.7074702,0.4695543 L41.8179535,0.4695543 L44.6352793,0.4695543 C44.6352793,0.4695543 44.6352793,0.4695543 44.690521,0.4695543 L45.0219711,0.4695543 C46.7344633,0.4695543 47.8945386,0.856246077 48.5021971,1.51914626 C48.9993723,2.07156309 49.1650973,2.78970496 49.0546139,3.67357188 L48.9993723,4.17074702 L48.8888889,4.94413057 C48.8888889,5.05461394 48.8336472,5.22033898 48.8336472,5.33082235 C48.7784055,5.82799749 48.6126805,6.26993095 48.3917137,6.60138104 C48.170747,6.98807282 47.8392969,7.31952291 47.4526051,7.54048964 C47.3421218,7.59573132 47.1763967,7.70621469 47.0659134,7.76145637 C46.789705,7.92718142 46.4030132,8.03766478 46.0163214,8.09290647 C45.905838,8.09290647 45.6848713,8.14814815 45.4639046,8.14814815 C45.1876962,8.14814815 44.8562461,8.20338983 44.524796,8.20338983 L42.1494036,8.20338983 L42.1494036,8.20338983 L41.8179535,8.20338983 C41.210295,8.20338983 40.8788449,8.09290647 40.7131199,7.87193974 C40.6578782,7.81669805 40.6578782,7.81669805 40.6026365,7.76145637 C40.5473949,7.65097301 40.4921532,7.48524796 40.5473949,7.31952291 L40.8236033,5.1650973 L41.1550534,2.67922159 L42.3703704,2.62397991 L42.3703704,2.62397991 Z" id="Path"></path>
                            <path d="M7.23666039,6.73948525 L6.96045198,6.73948525 L4.86126805,6.73948525 L4.14312618,6.73948525 L4.14312618,6.73948525 C3.70119272,6.73948525 3.36974262,6.68424357 3.14877589,6.62900188 C2.87256748,6.5737602 2.70684244,6.46327684 2.54111739,6.29755179 C2.43063402,6.18706842 2.37539234,6.02134338 2.32015066,5.85561833 L2.32015066,5.80037665 C2.32015066,5.74513497 2.32015066,5.6346516 2.26490898,5.57940992 C2.26490898,5.35844319 2.26490898,5.13747646 2.32015066,4.91650973 L2.48587571,3.7564344 C2.48587571,3.59070935 2.54111739,3.48022599 2.54111739,3.36974262 C2.54111739,3.31450094 2.54111739,3.31450094 2.59635907,3.25925926 L2.59635907,3.25925926 C2.65160075,3.14877589 2.65160075,3.03829253 2.70684244,2.98305085 L2.70684244,2.92780917 C2.76208412,2.87256748 2.76208412,2.76208412 2.8173258,2.70684244 C2.87256748,2.65160075 2.87256748,2.59635907 2.92780917,2.54111739 C3.09353421,2.32015066 3.36974262,2.15442561 3.64595104,2.04394225 C3.97740113,1.93345888 4.36409291,1.8782172 4.86126805,1.8782172 L6.5737602,1.8782172 L6.5737602,1.8782172 C6.9052103,1.8782172 7.12617702,1.82297552 7.23666039,1.71249215 C7.40238544,1.60200879 7.5128688,1.49152542 7.67859385,1.32580038 C7.67859385,1.32580038 7.73383553,1.27055869 7.73383553,1.21531701 C7.8443189,1.04959196 7.89956058,0.883866918 7.95480226,0.718141871 L8.01004394,0.497175141 L4.97175141,0.497175141 L4.91650973,0.497175141 L4.75078468,0.497175141 L4.52981795,0.497175141 C4.14312618,0.497175141 3.81167608,0.552416824 3.48022599,0.607658506 C1.54676711,0.883866918 0.497175141,1.93345888 0.276208412,3.7564344 L0.110483365,5.13747646 C-7.82707232e-15,6.07658506 0.165725047,6.79472693 0.607658506,7.29190207 C1.10483365,7.89956058 2.04394225,8.28625235 3.36974262,8.34149404 L5.74513497,8.34149404 C6.07658506,8.34149404 6.35279347,8.28625235 6.51851852,8.23101067 C6.73948525,8.12052731 6.9052103,7.89956058 7.01569366,7.67859385 C7.07093534,7.62335217 7.07093534,7.56811048 7.12617702,7.5128688 C7.07093534,7.29190207 7.18141871,7.01569366 7.23666039,6.73948525 Z" id="Path"></path>
                            <path d="M21.1575643,6.9052103 L21.1575643,7.01569366 C21.1023227,7.34714375 20.9365976,7.62335217 20.7156309,7.8443189 C20.5499058,8.01004394 20.2736974,8.17576899 19.8870056,8.17576899 L18.7269303,8.17576899 L18.8374137,7.29190207 L18.8926554,6.96045198 L19.6660389,0.4695543 L19.831764,0.4695543 L20.6051475,0.4695543 C21.212806,0.4695543 21.5994978,0.635279347 21.8204645,0.911487759 L23.9196485,4.28123038 L26.9026993,0.911487759 C27.1789077,0.635279347 27.5655995,0.4695543 28.173258,0.4695543 L28.9466416,0.4695543 L29.1676083,0.4695543 L28.3942247,6.9052103 L28.3942247,7.01569366 C28.3389831,7.34714375 28.173258,7.62335217 27.9522913,7.8443189 C27.7865662,8.01004394 27.5103578,8.12052731 27.123666,8.12052731 L26.0188324,8.12052731 L26.5712492,3.59070935 L24.1958569,6.5737602 C24.1406152,6.62900188 23.9196485,6.9052103 23.6434401,6.9052103 L23.6434401,6.9052103 L23.6434401,6.9052103 C23.3672316,6.9052103 23.2015066,6.62900188 23.1462649,6.51851852 L21.5994978,3.59070935 L21.1575643,6.9052103" id="Path"></path>
                        </g>
                        <path d="M30.7972379,19.8870056 L93.6346516,19.8870056 C94.7947269,19.8870056 95.7338355,20.8261142 95.7338355,21.9861896 L95.7338355,33.4488387 C95.7338355,34.608914 94.7947269,35.5480226 93.6346516,35.5480226 L19.7765223,35.5480226" id="Path" fill="#FFFFFF"></path>
                        <g transform="translate(35.630885, 23.201507)" fill="#4B4A4B">
                            <path d="M2.92780917,9.47394852 C1.71249215,9.47394852 0.883866918,9.08725675 0.110483365,8.36911488 L1.10483365,7.20903955 C1.65725047,7.81669805 2.48587571,8.09290647 2.92780917,8.09290647 C3.7564344,8.09290647 4.25360954,7.76145637 4.36409291,7.09855618 C4.52981795,6.1042059 3.03829253,5.60703076 2.32015066,5.22033898 C1.27055869,4.66792216 0.441933459,3.94978029 0.441933459,2.67922159 C0.441933459,1.29817954 1.54676711,0.248587571 3.25925926,0.248587571 C4.47457627,0.248587571 5.24795982,0.801004394 5.68989328,1.35342122 L4.80602637,2.51349655 C4.36409291,1.96107972 3.81167608,1.74011299 3.25925926,1.74011299 C2.48587571,1.74011299 2.04394225,2.18204645 2.09918393,2.67922159 C2.15442561,3.61833019 3.64595104,4.11550534 4.36409291,4.50219711 C5.52416824,5.1650973 6.46327684,6.26993095 5.96610169,7.70621469 C5.46892655,8.86629002 4.25360954,9.47394852 2.92780917,9.47394852 Z" id="Path"></path>
                            <polygon id="Path" points="15.4400502 9.36346516 9.94350282 9.36346516 9.94350282 0.331450094 15.4952919 0.331450094 15.1086001 1.76773384 11.5731325 1.76773384 11.5731325 3.97740113 14.9981168 3.97740113 14.9981168 5.41368487 11.5731325 5.41368487 11.5731325 7.89956058 15.7162586 7.89956058"></polygon>
                            <path d="M22.262398,9.47394852 C20.8813559,9.47394852 19.3898305,8.81104834 19.3898305,7.26428123 L19.3898305,2.70684244 C19.3898305,1.21531701 20.8261142,0.220966729 22.3176397,0.220966729 C23.4224733,0.220966729 24.3063402,0.662900188 24.7482737,1.16007533 L24.0853735,2.48587571 C23.5329567,1.93345888 22.7595731,1.71249215 22.3176397,1.71249215 C21.5994978,1.71249215 20.9918393,2.15442561 20.9918393,3.03829253 L20.9918393,6.96045198 C20.9918393,7.67859385 21.7652228,8.06528562 22.3728814,8.06528562 C22.8148148,8.06528562 23.6434401,7.89956058 24.527307,7.29190207 L24.9139987,8.72818581 C24.0853735,9.19774011 23.4224733,9.47394852 22.262398,9.47394852 Z" id="Path"></path>
                            <path d="M34.4984306,7.20903955 C34.4984306,8.75580665 32.8964218,9.47394852 31.5153798,9.47394852 C30.1343377,9.47394852 28.5323289,8.75580665 28.5323289,7.20903955 L28.5323289,0.331450094 L30.1895794,0.331450094 L30.1895794,7.0433145 C30.1895794,7.76145637 30.962963,8.09290647 31.5706215,8.09290647 C32.17828,8.09290647 32.8964218,7.81669805 32.8964218,7.0433145 L32.8964218,0.331450094 L34.4984306,0.331450094 L34.4984306,7.20903955 Z" id="Path"></path>
                            <path d="M43.0332706,9.36346516 L40.8236033,5.82799749 L39.994978,5.82799749 L39.994978,9.36346516 L38.5034526,9.36346516 L38.5034526,0.386691777 L41.2655367,0.386691777 C42.6465788,0.386691777 44.0828625,1.10483365 44.0828625,2.70684244 L44.0828625,3.42498431 C44.0828625,4.30885122 43.5856874,5.46892655 42.4256121,5.68989328 L44.8562461,9.391086 C44.8562461,9.36346516 43.0332706,9.36346516 43.0332706,9.36346516 Z M42.5360954,2.73446328 C42.5360954,1.96107972 41.9284369,1.68487131 41.0998117,1.68487131 L39.994978,1.68487131 L39.994978,4.44695543 L41.0998117,4.44695543 C41.8731952,4.44695543 42.5360954,4.11550534 42.5360954,3.2868801 L42.5360954,2.73446328 Z" id="Shape"></path>
                            <polygon id="Path" points="53.8330195 9.36346516 48.3364721 9.36346516 48.3364721 0.331450094 53.8882611 0.331450094 53.5015694 1.76773384 49.9661017 1.76773384 49.9661017 3.97740113 53.391086 3.97740113 53.391086 5.41368487 49.9661017 5.41368487 49.9661017 7.89956058 54.1092279 7.89956058"></polygon>
                        </g>
                        <g id="Path">
                            <g>
                                <path d="M34.2222222,8.70056497 L17.2630257,0.165725047 L0.248587571,8.70056497 C-2.29252982,35.0232266 17.2630257,39.6082863 17.2630257,39.6082863 C17.2630257,39.6082863 36.7357188,35.0232266 34.2222222,8.70056497 Z" fill="#D2D3D3"></path>
                                <path d="M32.0677966,10.1368487 L17.2630257,2.70684244 L2.45825487,10.1368487 C0.248587571,33.0345261 17.2630257,37.0119272 17.2630257,37.0119272 C17.2630257,37.0119272 34.2774639,33.0621469 32.0677966,10.1368487 Z" fill="#E6E6E5"></path>
                                <path d="M17.1525424,37.0119272 C17.1525424,37.0119272 0.138104206,32.9792844 2.3477715,10.081607 L17.1525424,2.70684244 L17.1525424,37.0119272 Z" fill="#F3F3F3"></path>
                            </g>
                            <g transform="translate(11.324545, 9.667294)">
                                <path d="M2.29252982,11.4350282 C1.90583804,11.4350282 1.57438795,11.1035782 1.57438795,10.7168864 L1.57438795,3.67357188 C1.57438795,1.74011299 3.45260515,0.248587571 5.77275581,0.248587571 L5.99372254,0.248587571 C8.3138732,0.248587571 10.081607,1.74011299 10.081607,3.67357188 L10.081607,6.38041431 C10.081607,6.76710609 9.75015694,7.09855618 9.36346516,7.09855618 C8.97677338,7.09855618 8.64532329,6.76710609 8.64532329,6.38041431 L8.64532329,3.67357188 C8.64532329,2.56873823 7.54048964,1.68487131 5.99372254,1.68487131 L5.77275581,1.68487131 C4.2259887,1.68487131 3.01067169,2.62397991 3.01067169,3.67357188 L3.01067169,10.7721281 C3.01067169,11.1588198 2.67922159,11.4350282 2.29252982,11.4350282 Z" fill="#7BC144"></path>
                                <path d="M11.4902699,16.0477087 C11.4902699,16.9315756 10.7721281,17.7049592 9.66729441,17.7049592 L1.96107972,17.7049592 C0.911487759,17.7049592 0.0276208412,16.9315756 0.0276208412,16.0477087 L0.0276208412,9.55681105 C0.0276208412,8.67294413 0.911487759,7.95480226 1.96107972,7.95480226 L9.66729441,7.95480226 C10.7168864,7.95480226 11.4902699,8.67294413 11.4902699,9.55681105 L11.4902699,16.0477087 Z" fill="url(#radialGradient-1)"></path>
                            </g>
                            <path d="M18.2849969,21.212806 C18.2849969,20.6603892 17.8430634,20.2184557 17.2906466,20.2184557 L17.2354049,20.2184557 C16.6829881,20.2184557 16.2410546,20.6603892 16.2410546,21.212806 L16.2410546,21.2680477 C16.2410546,21.8204645 16.6829881,22.262398 17.2354049,22.262398 L17.2906466,22.262398 C17.8706842,22.262398 18.2849969,21.7652228 18.2849969,21.212806 L18.2849969,21.212806 Z" fill="#F3F3F3"></path>
                            <path d="M17.7602009,24.4996861 C17.7602009,24.7758945 17.5392341,24.9416196 17.3182674,24.9416196 L17.3182674,24.9416196 C17.042059,24.9416196 16.876334,24.7206529 16.876334,24.4996861 L16.876334,21.8480854 C16.876334,21.571877 17.0973007,21.4061519 17.3182674,21.4061519 L17.3182674,21.4061519 C17.5944758,21.4061519 17.7602009,21.6271186 17.7602009,21.8480854 L17.7602009,24.4996861 Z" fill="#F3F3F3"></path>
                        </g>
                    </g>
                </g>
            </g>
        </g>
    </g>
</svg>