<?xml version="1.0" encoding="UTF-8"?>
<svg width="176px" height="56px" viewBox="0 0 176 56" version="1.1" xmlns="http://www.w3.org/2000/svg" xmlns:xlink="http://www.w3.org/1999/xlink">
    <title>1A18350E-7B55-48AC-BE32-961A8F086A77</title>
    <g id="Page-1" stroke="none" stroke-width="1" fill="none" fill-rule="evenodd">
        <g id="budo&amp;fitness---footer-v2" transform="translate(-1059.000000, -176.000000)">
            <g id="Group-9" transform="translate(1059.000000, 80.000000)">
                <g id="klarna" transform="translate(0.000000, 96.000000)">
                    <rect id="Rectangle" fill="#202020" x="0" y="0" width="176" height="56" rx="4"></rect>
                    <g id="klarna-vector-logo" transform="translate(8.000000, 8.000000)" fill="#FFFFFF" fill-rule="nonzero">
                        <path d="M59.7134328,4.53731343 C60.919403,4.53731343 62.0179104,4.90746269 62.9373134,5.54029851 L62.9373134,4.84776119 L66.1850746,4.84776119 L66.1850746,15.7014925 L62.9373134,15.7014925 L62.9373134,15.0089552 C62.0179104,15.6298507 60.9074627,16 59.7134328,16 C56.5492537,16 53.9820896,13.4328358 53.9820896,10.2686567 C53.9820896,7.10447761 56.5492537,4.53731343 59.7134328,4.53731343 Z M25.4328358,4.53731343 C26.638806,4.53731343 27.7373134,4.90746269 28.6567164,5.54029851 L28.6567164,4.84776119 L31.9044776,4.84776119 L31.9044776,15.7014925 L28.6567164,15.7014925 L28.6567164,15.0089552 C27.7373134,15.6298507 26.6268657,16 25.4328358,16 C22.2686567,16 19.7014925,13.4328358 19.7014925,10.2686567 C19.7014925,7.10447761 22.2686567,4.53731343 25.4328358,4.53731343 Z M69.6358209,11.8447761 C70.7701493,11.8447761 71.6776119,12.7641791 71.6776119,13.8865672 C71.6776119,15.0208955 70.758209,15.9283582 69.6358209,15.9283582 C68.5014925,15.9283582 67.5940299,15.0089552 67.5940299,13.8865672 C67.5940299,12.7522388 68.5134328,11.8447761 69.6358209,11.8447761 Z M48.2149254,4.54925373 C50.841791,4.54925373 52.8477612,6.26865672 52.8358739,8.8 L52.8358739,8.8 L52.8358739,15.7014925 L49.5880597,15.7014925 L49.5880597,9.97014925 C49.5880597,8.38208955 48.7761194,7.53432836 47.3432836,7.53432836 C46.0179104,7.53432836 44.9074627,8.34626866 44.9074627,9.99402985 L44.9074627,9.99402985 L44.9074627,15.7014925 L41.6358209,15.7014925 L41.6358209,4.84776119 L44.8716418,4.84776119 L44.8716418,6.06567164 C45.6835821,4.95522388 46.9134328,4.54925373 48.2149254,4.54925373 Z M36.9313433,4.84776119 L36.9313433,6.25671642 C37.5880597,5.40895522 38.8059701,4.84776119 40.1074627,4.84776119 L40.1074627,4.84776119 L40.1074627,8 L40.1074627,8 L40.0716418,8 C38.7820896,8 36.9313433,8.91940299 36.9313433,10.6268657 L36.9313433,10.6268657 L36.9313433,15.7014925 L33.6,15.7014925 L33.6,4.84776119 L36.9313433,4.84776119 Z M18.3761194,0.0119402985 L18.3761194,15.7014925 L14.9731343,15.7014925 L14.9731343,0.0119402985 L18.3761194,0.0119402985 Z M12.6328358,-1.03561604e-12 C12.6328358,3.40298507 11.3074627,6.56716418 8.95522388,8.90746269 L8.95522388,8.90746269 L13.9343284,15.7014925 L9.48059701,15.7014925 L4.07164179,8.32238806 L5.46865672,7.27164179 C7.78507463,5.54029851 9.11044776,2.88955224 9.11044776,-1.03561604e-12 L9.11044776,-1.03561604e-12 Z M3.64179104,-1.03561604e-12 L3.64179104,15.7014925 L0.0358208955,15.7014925 L0.0358208955,-1.03561604e-12 L3.64179104,-1.03561604e-12 Z M59.9880597,7.47462687 C58.3641791,7.47462687 57.038806,8.72835821 57.038806,10.2686567 C57.038806,11.8089552 58.3641791,13.0626866 59.9880597,13.0626866 C61.6119403,13.0626866 62.9373134,11.8089552 62.9373134,10.2686567 C62.9373134,8.72835821 61.6238806,7.47462687 59.9880597,7.47462687 Z M25.7074627,7.47462687 C24.0835821,7.47462687 22.758209,8.72835821 22.758209,10.2686567 C22.758209,11.8089552 24.0835821,13.0626866 25.7074627,13.0626866 C27.3313433,13.0626866 28.6567164,11.8089552 28.6567164,10.2686567 C28.6567164,8.72835821 27.3432836,7.47462687 25.7074627,7.47462687 Z" id="Combined-Shape"></path>
                    </g>
                    <g id="master-logo" transform="translate(8.000000, 32.000000)" fill-rule="nonzero">
                        <polygon id="Path" fill="#FF5F00" points="16.0427975 13.9466114 9.21190138 13.9466114 9.21190138 1.67029745 16.0427975 1.67029745"></polygon>
                        <path d="M9.64950442,7.80746168 C9.64950442,10.2977685 10.8154862,12.5160624 12.6312211,13.9456187 C11.3034215,14.9909816 9.62766398,15.6149234 7.80646893,15.6149234 C3.49496711,15.6149234 6.58186955e-14,12.1194599 6.58186955e-14,7.80746168 C6.58186955e-14,3.49546348 3.49496711,-5.385166e-14 7.80646893,-5.385166e-14 C9.62766398,-5.385166e-14 11.3034215,0.623941721 12.6312211,1.6693047 C10.8154862,3.09886091 9.64950442,5.31715491 9.64950442,7.80746168" id="Path" fill="#EB001B" transform="translate(6.315611, 7.807462) scale(-1, 1) rotate(-180.000000) translate(-6.315611, -7.807462) "></path>
                        <path d="M25.2554931,7.80746168 C25.2554931,3.49546348 21.7605259,-5.385166e-14 17.4490241,-5.385166e-14 C15.6278291,-5.385166e-14 13.9520715,0.623941721 12.6237755,1.6693047 C14.4400068,3.09886091 15.6059886,5.31715491 15.6059886,7.80746168 C15.6059886,10.2977685 14.4400068,12.5160624 12.6237755,13.9456187 C13.9520715,14.9909816 15.6278291,15.6149234 17.4490241,15.6149234 C21.7605259,15.6149234 25.2554931,12.1194599 25.2554931,7.80746168" id="Path" fill="#F79E1B" transform="translate(18.939634, 7.807462) scale(-1, 1) rotate(-180.000000) translate(-18.939634, -7.807462) "></path>
                    </g>
                    <g id="visa-logo" transform="translate(42.000000, 35.000000)" fill-rule="nonzero">
                        <polygon id="polygon9" fill="#00579F" points="14.416918 10.6120669 11.721824 10.6120669 13.4075289 0.188934244 16.1024755 0.188934244"></polygon>
                        <path d="M24.1868732,0.443750097 C23.6552822,0.232852766 22.812135,-3.82618365e-06 21.769586,-3.82618365e-06 C19.1080941,-3.82618365e-06 17.2338933,1.41924236 17.2223978,3.44833702 C17.2002912,4.94539858 18.5642708,5.77690294 19.5844184,6.27607084 C20.6271149,6.78614467 20.981558,7.11907065 20.981558,7.57373051 C20.9709468,8.27200553 20.1390003,8.59387819 19.3630573,8.59387819 C18.2870535,8.59387819 17.7105124,8.42793102 16.8343526,8.0394437 L16.4794674,7.87290702 L16.1023281,10.2126736 C16.7344306,10.5006494 17.8990083,10.7562022 19.1080941,10.7674029 C21.9359753,10.7674029 23.7770161,9.37011596 23.798828,7.20779196 C23.8095866,6.02125498 23.0893523,5.11208263 21.536582,4.3691522 C20.5939549,3.89223832 20.0166769,3.57066042 20.0166769,3.08269322 C20.0277302,2.63908667 20.5049389,2.18472157 21.5690051,2.18472157 C22.4451648,2.16246755 23.0889101,2.37307012 23.5765826,2.58382008 L23.8203451,2.69450065 L24.1868732,0.443750097 L24.1868732,0.443750097 L24.1868732,0.443750097 Z" id="path11" fill="#00579F"></path>
                        <path d="M27.7688855,6.91952139 C27.9908362,6.32072625 28.8448893,4.00321365 28.8448893,4.00321365 C28.8336886,4.02546766 29.0663978,3.39336518 29.1994798,3.00531999 L29.3878283,3.90343902 C29.3878283,3.90343902 29.8981969,6.39839424 30.0090249,6.91952139 C29.5878197,6.91952139 28.3012134,6.91952139 27.7688855,6.91952139 L27.7688855,6.91952139 Z M31.0956398,0.188934244 L29.0109838,0.188934244 C28.3681228,0.188934244 27.8797135,0.377282804 27.6023488,1.05374594 L23.5991314,10.6119195 L26.4270125,10.6119195 C26.4270125,10.6119195 26.8925784,9.32546055 26.9926477,9.04839068 C27.3028776,9.04839068 30.0538277,9.04839068 30.4529262,9.04839068 C30.5302994,9.41432923 30.7745041,10.6119195 30.7745041,10.6119195 L33.2699014,10.6119195 L31.0956398,0.188934244 L31.0956398,0.188934244 L31.0956398,0.188934244 Z" id="path13" fill="#00579F"></path>
                        <path d="M9.47077871,0.188934244 L6.83139345,7.29651327 L6.54297551,5.85501306 C6.05500831,4.19170958 4.52463942,2.38456558 2.8168279,1.48600441 L5.23440989,10.6010136 L8.08439772,10.6010136 L12.3206192,0.188934244 L9.47077871,0.188934244 L9.47077871,0.188934244 L9.47077871,0.188934244 Z" id="path15" fill="#00579F"></path>
                        <path d="M4.38050413,0.188934244 L0.0443606851,0.188934244 L3.05470055e-08,0.39953682 C3.38246309,1.26449589 5.62260246,3.34944666 6.54297551,5.85545519 L5.60034844,1.06509402 C5.44515984,0.399389442 4.96824596,0.210893505 4.38050413,0.188934244 L4.38050413,0.188934244 Z" id="path17" fill="#FAA61A"></path>
                    </g>
                    <text id="Faktura,-Konto,-Delb" font-family="OpenSans, Open Sans" font-size="9" font-weight="normal" fill="#FFFFFF">
                        <tspan x="96.1989746" y="17">Faktura, Konto, </tspan>
                        <tspan x="90.2399902" y="30">Delbetalning, Kort </tspan>
                        <tspan x="91.9824219" y="43">och Internetbank</tspan>
                    </text>
                </g>
            </g>
        </g>
    </g>
</svg>